<svg width="1680" height="263" viewBox="0 0 1680 263" fill="none" xmlns="http://www.w3.org/2000/svg">
<rect width="1680" height="263" fill="#1E1E1E"/>
<rect width="1680" height="240" transform="translate(0 23)" fill="white"/>
<path d="M480.443 112.011C480.602 107.92 479.386 104.716 476.795 102.398C474.227 100.08 470.625 98.9205 465.989 98.9205C462.761 98.9205 459.807 99.4886 457.125 100.625C454.466 101.739 452.273 103.273 450.545 105.227C448.841 107.182 447.784 109.409 447.375 111.909C447.08 113.75 447.216 115.364 447.784 116.75C448.352 118.114 449.227 119.295 450.409 120.295C451.591 121.295 452.943 122.148 454.466 122.852C456.011 123.557 457.58 124.148 459.17 124.625L466.227 126.739C468.318 127.352 470.398 128.136 472.466 129.091C474.534 130.045 476.375 131.239 477.989 132.67C479.602 134.102 480.795 135.864 481.568 137.955C482.364 140.045 482.523 142.545 482.045 145.455C481.409 149.227 479.886 152.602 477.477 155.58C475.091 158.534 471.955 160.875 468.068 162.602C464.182 164.33 459.693 165.193 454.602 165.193C449.852 165.193 445.852 164.409 442.602 162.841C439.352 161.25 436.955 159.057 435.409 156.261C433.864 153.466 433.273 150.227 433.636 146.545H440.182C439.932 149.295 440.443 151.625 441.716 153.534C443.011 155.443 444.852 156.898 447.239 157.898C449.648 158.875 452.42 159.364 455.557 159.364C459.034 159.364 462.227 158.784 465.136 157.625C468.045 156.443 470.443 154.807 472.33 152.716C474.239 150.602 475.42 148.148 475.875 145.352C476.284 142.989 476 141 475.023 139.386C474.068 137.773 472.58 136.42 470.557 135.33C468.557 134.216 466.17 133.239 463.398 132.398L455.42 129.943C450.216 128.352 446.341 126.114 443.795 123.227C441.273 120.341 440.375 116.659 441.102 112.182C441.739 108.409 443.295 105.102 445.773 102.261C448.273 99.3977 451.375 97.1705 455.08 95.5795C458.784 93.9886 462.784 93.1932 467.08 93.1932C471.42 93.1932 475.114 94 478.159 95.6136C481.227 97.2273 483.5 99.4545 484.977 102.295C486.477 105.114 487.034 108.352 486.648 112.011H480.443ZM494.045 183.636C492.841 183.636 491.727 183.523 490.705 183.295C489.705 183.068 488.92 182.818 488.352 182.545L490.909 177.193C492.818 177.852 494.568 178.057 496.159 177.807C497.773 177.58 499.307 176.807 500.761 175.489C502.216 174.17 503.648 172.205 505.057 169.591L507.92 164.273L497.557 111.636H503.864L512.045 156.091H512.489L535.432 111.636H542.284L510.068 172.216C508.682 174.83 507.148 176.977 505.466 178.659C503.807 180.341 502.011 181.591 500.08 182.409C498.17 183.227 496.159 183.636 494.045 183.636ZM564.588 165.091C559.702 165.091 555.668 163.955 552.486 161.682C549.304 159.386 547.077 156.216 545.804 152.17C544.531 148.102 544.338 143.42 545.224 138.125C546.111 132.852 547.861 128.17 550.474 124.08C553.088 119.966 556.315 116.75 560.156 114.432C563.997 112.091 568.168 110.92 572.668 110.92C575.509 110.92 578.168 111.443 580.645 112.489C583.122 113.511 585.224 115.091 586.952 117.227C588.702 119.341 589.918 122.011 590.599 125.239C591.281 128.443 591.259 132.239 590.531 136.625L590.054 139.625H549.145L549.997 134.273H584.736C585.304 130.909 585.145 127.886 584.259 125.205C583.372 122.523 581.861 120.398 579.724 118.83C577.611 117.239 574.986 116.443 571.849 116.443C568.645 116.443 565.611 117.341 562.747 119.136C559.906 120.932 557.497 123.273 555.52 126.159C553.565 129.023 552.304 132.08 551.736 135.33L551.054 139.352C550.327 143.784 550.418 147.5 551.327 150.5C552.236 153.477 553.884 155.727 556.27 157.25C558.656 158.773 561.713 159.534 565.44 159.534C567.94 159.534 570.202 159.148 572.224 158.375C574.247 157.602 576.009 156.568 577.509 155.273C579.009 153.955 580.213 152.511 581.122 150.943L586.543 152.818C585.384 155.023 583.747 157.057 581.634 158.92C579.543 160.784 577.054 162.284 574.168 163.42C571.304 164.534 568.111 165.091 564.588 165.091ZM618.085 165.091C613.79 165.091 610.21 163.955 607.347 161.682C604.483 159.409 602.483 156.239 601.347 152.17C600.21 148.102 600.085 143.364 600.972 137.955C601.881 132.568 603.574 127.852 606.051 123.807C608.551 119.739 611.608 116.58 615.222 114.33C618.858 112.057 622.824 110.92 627.119 110.92C630.324 110.92 632.881 111.489 634.79 112.625C636.722 113.739 638.188 115.125 639.188 116.784C640.188 118.443 640.903 120.057 641.335 121.625H641.881L646.449 94.1818H652.551L640.96 164H635.062L636.699 154.284H635.949C634.972 155.875 633.688 157.511 632.097 159.193C630.528 160.852 628.597 162.25 626.301 163.386C624.006 164.523 621.267 165.091 618.085 165.091ZM619.415 159.534C622.801 159.534 625.858 158.614 628.585 156.773C631.335 154.909 633.631 152.352 635.472 149.102C637.335 145.83 638.608 142.08 639.29 137.852C639.994 133.67 639.983 129.977 639.256 126.773C638.528 123.545 637.119 121.023 635.028 119.205C632.938 117.364 630.176 116.443 626.744 116.443C623.267 116.443 620.176 117.398 617.472 119.307C614.767 121.193 612.528 123.75 610.756 126.977C609.006 130.205 607.79 133.83 607.108 137.852C606.449 141.92 606.449 145.591 607.108 148.864C607.767 152.136 609.108 154.739 611.131 156.67C613.176 158.58 615.938 159.534 619.415 159.534ZM686.574 164H679.892L716.881 94.1818H723.699L737.506 164H730.824L719.199 102.466H718.756L686.574 164ZM695.847 137.239H730.483L729.528 142.966H694.892L695.847 137.239ZM759.699 131.273L754.278 164H748.21L756.938 111.636H762.835L761.472 119.852H762.017C763.653 117.17 765.915 115.023 768.801 113.409C771.71 111.773 775.085 110.955 778.926 110.955C782.426 110.955 785.381 111.693 787.79 113.17C790.222 114.625 791.949 116.773 792.972 119.614C794.017 122.455 794.199 125.943 793.517 130.08L787.824 164H781.756L787.347 130.455C788.051 126.182 787.426 122.795 785.472 120.295C783.54 117.773 780.551 116.511 776.506 116.511C773.756 116.511 771.199 117.102 768.835 118.284C766.494 119.466 764.517 121.17 762.903 123.398C761.29 125.602 760.222 128.227 759.699 131.273ZM815.429 164L808.338 111.636H814.713L819.929 154.83H820.372L839.94 111.636H846.384L851.463 154.727H851.94L871.509 111.636H877.986L853.44 164H847.168L841.849 121.148H841.202L821.702 164H815.429ZM895.543 165.193C892.384 165.193 889.599 164.58 887.19 163.352C884.781 162.102 882.986 160.307 881.804 157.966C880.645 155.602 880.327 152.739 880.849 149.375C881.304 146.784 882.168 144.602 883.44 142.83C884.736 141.057 886.372 139.602 888.349 138.466C890.327 137.307 892.599 136.398 895.168 135.739C897.736 135.08 900.531 134.58 903.554 134.239C906.509 133.875 909.031 133.557 911.122 133.284C913.213 133.011 914.838 132.58 915.997 131.989C917.156 131.398 917.849 130.443 918.077 129.125L918.281 127.898C918.872 124.33 918.327 121.523 916.645 119.477C914.963 117.409 912.145 116.375 908.19 116.375C904.418 116.375 901.145 117.216 898.372 118.898C895.622 120.557 893.577 122.5 892.236 124.727L886.849 122.648C888.486 119.784 890.497 117.5 892.884 115.795C895.27 114.068 897.827 112.83 900.554 112.08C903.281 111.307 905.974 110.92 908.634 110.92C910.634 110.92 912.668 111.182 914.736 111.705C916.804 112.227 918.656 113.136 920.293 114.432C921.952 115.705 923.168 117.489 923.94 119.784C924.736 122.057 924.849 124.943 924.281 128.443L918.349 164H912.281L913.679 155.716H913.304C912.349 157.261 911.031 158.761 909.349 160.216C907.69 161.67 905.702 162.864 903.384 163.795C901.065 164.727 898.452 165.193 895.543 165.193ZM897.077 159.636C900.304 159.636 903.224 158.92 905.838 157.489C908.474 156.057 910.634 154.159 912.315 151.795C914.02 149.409 915.111 146.784 915.588 143.92L916.849 136.352C916.349 136.784 915.531 137.17 914.395 137.511C913.281 137.852 912.02 138.159 910.611 138.432C909.224 138.682 907.827 138.898 906.418 139.08C905.031 139.261 903.804 139.42 902.736 139.557C899.713 139.92 897.077 140.489 894.827 141.261C892.599 142.034 890.815 143.102 889.474 144.466C888.134 145.807 887.293 147.534 886.952 149.648C886.429 152.83 887.122 155.295 889.031 157.045C890.963 158.773 893.645 159.636 897.077 159.636ZM934.491 164L943.219 111.636H949.116L947.753 119.682H948.196C949.651 117.045 951.821 114.92 954.707 113.307C957.616 111.67 960.719 110.852 964.014 110.852C964.514 110.852 965.071 110.864 965.685 110.886C966.298 110.886 966.81 110.909 967.219 110.955L966.162 117.125C965.889 117.08 965.412 117.011 964.73 116.92C964.071 116.83 963.332 116.784 962.514 116.784C959.787 116.784 957.264 117.364 954.946 118.523C952.651 119.659 950.719 121.239 949.151 123.261C947.605 125.284 946.605 127.591 946.151 130.182L940.56 164H934.491Z" fill="black"/>
<path d="M434.5 143H361.5L306.75 233L197.25 53L142.5 143H69.5" stroke="#1E1E1E" stroke-width="4" stroke-linecap="round" stroke-linejoin="round"/>
<path d="M1335.5 114H1262.5L1207.75 199.5L1098.25 28.5L1043.5 114H970.5" stroke="#1E1E1E" stroke-width="4" stroke-linecap="round" stroke-linejoin="round"/>
</svg>
